<svg width="32" height="32" viewBox="0 0 32 32" fill="none" xmlns="http://www.w3.org/2000/svg">
<path d="M21.3336 8.01518H20.2668V7.48197C20.2668 7.18733 20.028 6.94858 19.7336 6.94858C19.4389 6.94858 19.2002 7.18733 19.2002 7.48197V8.01518H12.8002V7.48197C12.8002 7.18733 12.5614 6.94858 12.2668 6.94858C11.9723 6.94858 11.7336 7.18733 11.7336 7.48197V8.01518H10.6668C9.81825 8.01518 9.00431 8.35233 8.40412 8.95251C7.80394 9.55269 7.4668 10.3666 7.4668 11.2152V21.8822C7.4668 22.7307 7.80394 23.5446 8.40412 24.1448C9.00431 24.745 9.81825 25.0822 10.6668 25.0822H21.3338C22.1823 25.0822 22.9963 24.745 23.5964 24.1448C24.1966 23.5446 24.5338 22.7307 24.5338 21.8822V11.2152C24.5338 10.3666 24.1966 9.55269 23.5964 8.95251C22.9963 8.35233 22.1823 8.01518 21.3338 8.01518H21.3336ZM16.0001 21.8822C14.5857 21.8822 13.229 21.3202 12.2289 20.32C11.2287 19.3198 10.6667 17.9632 10.6667 16.5488C10.6667 15.1343 11.2287 13.7777 12.2289 12.7775C13.229 11.7773 14.5857 11.2154 16.0001 11.2154C17.4145 11.2154 18.7712 11.7773 19.7713 12.7775C20.7715 13.7777 21.3335 15.1343 21.3335 16.5488C21.3335 17.9632 20.7715 19.3198 19.7713 20.32C18.7712 21.3202 17.4145 21.8822 16.0001 21.8822ZM18.6667 16.5487C18.6667 16.6901 18.6105 16.8256 18.5105 16.9258C18.4105 17.0258 18.2747 17.0819 18.1333 17.0819H16.0006L16.0001 17.0821C15.7056 17.0821 15.4667 16.8431 15.4667 16.5487V13.8819C15.4667 13.5874 15.7056 13.3487 16.0001 13.3487C16.2948 13.3487 16.5335 13.5874 16.5335 13.8821V16.0153H18.1335C18.428 16.0153 18.6667 16.254 18.6667 16.5487H18.6667Z" fill="#B3B3B3"/>
</svg>
