<svg width="12" height="8" viewBox="0 0 12 8" fill="none" xmlns="http://www.w3.org/2000/svg">
<path d="M10.8071 0.27417H1.20713C1.0657 0.274081 0.929988 0.330241 0.829988 0.43033C0.729899 0.53033 0.673739 0.666033 0.673828 0.807473V7.20747C0.673739 7.3489 0.729899 7.48462 0.829988 7.58462C0.929988 7.68471 1.06569 7.74087 1.20713 7.74078H10.8071C10.9486 7.74087 11.0843 7.68471 11.1843 7.58462C11.2844 7.48462 11.3405 7.34891 11.3404 7.20747V0.807473C11.3405 0.666044 11.2844 0.53033 11.1843 0.43033C11.0843 0.330241 10.9486 0.274081 10.8071 0.27417ZM9.04562 1.34078L6.00722 3.36631L2.96882 1.34078H9.04562ZM1.74048 6.67426V1.80409L5.71145 4.4514C5.79904 4.5098 5.90199 4.54096 6.00724 4.54096C6.1125 4.54096 6.21546 4.5098 6.30304 4.4514L10.274 1.80409V6.67426H1.74048Z" fill="black"/>
</svg>
