<svg width="173" height="32" viewBox="0 0 173 32" fill="none" xmlns="http://www.w3.org/2000/svg">
<path d="M15.2716 11.1897L0.273763 6.27734C0.109582 6.2229 0 6.33179 0 6.49551V26.8552C0 26.9645 0.0546007 27.0189 0.164183 27.0734L15.1621 31.9857C15.2716 32.0402 15.4358 31.9313 15.4358 31.7676V11.4078C15.3812 11.2986 15.3266 11.2441 15.2716 11.1893V11.1897Z" fill="#D9B608"/>
<path d="M29.996 4.36679L16.6402 0H16.5306L3.17483 4.36679C2.95605 4.42124 2.95605 4.69423 3.17483 4.74906L16.5306 9.11585H16.6402L29.996 4.74906C30.1601 4.74906 30.1601 4.47606 29.996 4.36679Z" fill="#D9B608"/>
<path d="M32.8974 6.27686L17.8995 11.1892C17.79 11.2436 17.7354 11.2985 17.7354 11.4074V31.7671C17.7354 31.9308 17.8995 31.9852 18.0091 31.9852L33.007 27.0729C33.1166 27.0185 33.1712 26.9636 33.1712 26.8547V6.49503C33.1712 6.3313 33.007 6.22241 32.8974 6.27686Z" fill="#D9B608"/>
<path d="M54.9309 23L59.2109 15.94L54.9309 9H56.8309L60.2709 14.6L63.5509 9H65.4309L61.1509 16.02L65.4509 23H63.5509L60.0909 17.38L56.8309 23H54.9309ZM68.2325 27.4L70.6925 22.04H70.1125L66.1725 13.08H67.9925L71.2725 20.8L74.7525 13.08H76.4925L69.9925 27.4H68.2325ZM77.5857 23V21.62L83.1057 14.48H77.6857V13.08H84.9857V14.46L79.4657 21.6H85.0857V23H77.5857ZM92.7017 23V9H94.3817V21.66H100.902V23H92.7017ZM107.2 23.24C106.266 23.24 105.426 23.0267 104.68 22.6C103.933 22.1733 103.34 21.5733 102.9 20.8C102.473 20.0133 102.26 19.0933 102.26 18.04C102.26 16.9867 102.48 16.0733 102.92 15.3C103.36 14.5133 103.953 13.9067 104.7 13.48C105.46 13.0533 106.306 12.84 107.24 12.84C108.173 12.84 109.013 13.0533 109.76 13.48C110.506 13.9067 111.093 14.5133 111.52 15.3C111.96 16.0733 112.18 16.9867 112.18 18.04C112.18 19.0933 111.96 20.0133 111.52 20.8C111.08 21.5733 110.48 22.1733 109.72 22.6C108.973 23.0267 108.133 23.24 107.2 23.24ZM107.2 21.8C107.773 21.8 108.306 21.66 108.8 21.38C109.293 21.1 109.693 20.68 110 20.12C110.306 19.56 110.46 18.8667 110.46 18.04C110.46 17.2133 110.306 16.52 110 15.96C109.706 15.4 109.313 14.98 108.82 14.7C108.326 14.42 107.8 14.28 107.24 14.28C106.666 14.28 106.133 14.42 105.64 14.7C105.146 14.98 104.746 15.4 104.44 15.96C104.133 16.52 103.98 17.2133 103.98 18.04C103.98 18.8667 104.133 19.56 104.44 20.12C104.746 20.68 105.14 21.1 105.62 21.38C106.113 21.66 106.64 21.8 107.2 21.8ZM118.006 19.88C117.446 19.88 116.933 19.8067 116.466 19.66L115.466 20.6C115.613 20.7067 115.793 20.8 116.006 20.88C116.233 20.9467 116.553 21.0133 116.966 21.08C117.379 21.1333 117.959 21.1933 118.706 21.26C120.039 21.3533 120.993 21.66 121.566 22.18C122.139 22.7 122.426 23.38 122.426 24.22C122.426 24.7933 122.266 25.34 121.946 25.86C121.639 26.38 121.159 26.8067 120.506 27.14C119.866 27.4733 119.039 27.64 118.026 27.64C117.133 27.64 116.339 27.52 115.646 27.28C114.953 27.0533 114.413 26.7 114.026 26.22C113.639 25.7533 113.446 25.16 113.446 24.44C113.446 24.0667 113.546 23.66 113.746 23.22C113.946 22.7933 114.319 22.3867 114.866 22C114.573 21.88 114.319 21.7533 114.106 21.62C113.906 21.4733 113.719 21.3133 113.546 21.14V20.68L115.246 19C114.459 18.3333 114.066 17.4533 114.066 16.36C114.066 15.7067 114.219 15.1133 114.526 14.58C114.833 14.0467 115.279 13.6267 115.866 13.32C116.453 13 117.166 12.84 118.006 12.84C118.579 12.84 119.099 12.92 119.566 13.08H123.226V14.34L121.366 14.42C121.753 14.98 121.946 15.6267 121.946 16.36C121.946 17.0133 121.786 17.6067 121.466 18.14C121.159 18.6733 120.713 19.1 120.126 19.42C119.553 19.7267 118.846 19.88 118.006 19.88ZM118.006 18.5C118.713 18.5 119.273 18.32 119.686 17.96C120.113 17.5867 120.326 17.0533 120.326 16.36C120.326 15.68 120.113 15.16 119.686 14.8C119.273 14.4267 118.713 14.24 118.006 14.24C117.286 14.24 116.713 14.4267 116.286 14.8C115.873 15.16 115.666 15.68 115.666 16.36C115.666 17.0533 115.873 17.5867 116.286 17.96C116.713 18.32 117.286 18.5 118.006 18.5ZM115.086 24.28C115.086 24.9467 115.366 25.44 115.926 25.76C116.486 26.0933 117.186 26.26 118.026 26.26C118.853 26.26 119.513 26.08 120.006 25.72C120.513 25.36 120.766 24.88 120.766 24.28C120.766 23.8533 120.593 23.48 120.246 23.16C119.899 22.8533 119.259 22.6733 118.326 22.62C117.593 22.5667 116.959 22.5 116.426 22.42C115.879 22.7133 115.519 23.0267 115.346 23.36C115.173 23.7067 115.086 24.0133 115.086 24.28ZM126.141 10.88C125.808 10.88 125.528 10.7733 125.301 10.56C125.088 10.3333 124.981 10.0533 124.981 9.72C124.981 9.4 125.088 9.13333 125.301 8.92C125.528 8.70667 125.808 8.6 126.141 8.6C126.461 8.6 126.735 8.70667 126.961 8.92C127.188 9.13333 127.301 9.4 127.301 9.72C127.301 10.0533 127.188 10.3333 126.961 10.56C126.735 10.7733 126.461 10.88 126.141 10.88ZM125.301 23V13.08H126.981V23H125.301ZM133.706 23.24C132.52 23.24 131.533 22.94 130.746 22.34C129.96 21.74 129.5 20.9267 129.366 19.9H131.086C131.193 20.42 131.466 20.8733 131.906 21.26C132.36 21.6333 132.966 21.82 133.726 21.82C134.433 21.82 134.953 21.6733 135.286 21.38C135.62 21.0733 135.786 20.7133 135.786 20.3C135.786 19.7 135.566 19.3 135.126 19.1C134.7 18.9 134.093 18.72 133.306 18.56C132.773 18.4533 132.24 18.3 131.706 18.1C131.173 17.9 130.726 17.62 130.366 17.26C130.006 16.8867 129.826 16.4 129.826 15.8C129.826 14.9333 130.146 14.2267 130.786 13.68C131.44 13.12 132.32 12.84 133.426 12.84C134.48 12.84 135.34 13.1067 136.006 13.64C136.686 14.16 137.08 14.9067 137.186 15.88H135.526C135.46 15.3733 135.24 14.98 134.866 14.7C134.506 14.4067 134.02 14.26 133.406 14.26C132.806 14.26 132.34 14.3867 132.006 14.64C131.686 14.8933 131.526 15.2267 131.526 15.64C131.526 16.04 131.733 16.3533 132.146 16.58C132.573 16.8067 133.146 17 133.866 17.16C134.48 17.2933 135.06 17.46 135.606 17.66C136.166 17.8467 136.62 18.1333 136.966 18.52C137.326 18.8933 137.506 19.44 137.506 20.16C137.52 21.0533 137.18 21.7933 136.486 22.38C135.806 22.9533 134.88 23.24 133.706 23.24ZM143.377 23C142.47 23 141.757 22.78 141.237 22.34C140.717 21.9 140.457 21.1067 140.457 19.96V14.5H138.737V13.08H140.457L140.677 10.7H142.137V13.08H145.057V14.5H142.137V19.96C142.137 20.5867 142.264 21.0133 142.517 21.24C142.77 21.4533 143.217 21.56 143.857 21.56H144.897V23H143.377ZM148.212 10.88C147.878 10.88 147.598 10.7733 147.372 10.56C147.158 10.3333 147.052 10.0533 147.052 9.72C147.052 9.4 147.158 9.13333 147.372 8.92C147.598 8.70667 147.878 8.6 148.212 8.6C148.532 8.6 148.805 8.70667 149.032 8.92C149.258 9.13333 149.372 9.4 149.372 9.72C149.372 10.0533 149.258 10.3333 149.032 10.56C148.805 10.7733 148.532 10.88 148.212 10.88ZM147.372 23V13.08H149.052V23H147.372ZM156.537 23.24C155.59 23.24 154.737 23.0267 153.977 22.6C153.23 22.16 152.637 21.5533 152.197 20.78C151.77 19.9933 151.557 19.08 151.557 18.04C151.557 17 151.77 16.0933 152.197 15.32C152.637 14.5333 153.23 13.9267 153.977 13.5C154.737 13.06 155.59 12.84 156.537 12.84C157.71 12.84 158.697 13.1467 159.497 13.76C160.31 14.3733 160.823 15.1933 161.037 16.22H159.317C159.183 15.6067 158.857 15.1333 158.337 14.8C157.817 14.4533 157.21 14.28 156.517 14.28C155.957 14.28 155.43 14.42 154.937 14.7C154.443 14.98 154.043 15.4 153.737 15.96C153.43 16.52 153.277 17.2133 153.277 18.04C153.277 18.8667 153.43 19.56 153.737 20.12C154.043 20.68 154.443 21.1067 154.937 21.4C155.43 21.68 155.957 21.82 156.517 21.82C157.21 21.82 157.817 21.6533 158.337 21.32C158.857 20.9733 159.183 20.4867 159.317 19.86H161.037C160.837 20.86 160.33 21.6733 159.517 22.3C158.703 22.9267 157.71 23.24 156.537 23.24ZM167.183 23.24C165.996 23.24 165.01 22.94 164.223 22.34C163.436 21.74 162.976 20.9267 162.843 19.9H164.563C164.67 20.42 164.943 20.8733 165.383 21.26C165.836 21.6333 166.443 21.82 167.203 21.82C167.91 21.82 168.43 21.6733 168.763 21.38C169.096 21.0733 169.263 20.7133 169.263 20.3C169.263 19.7 169.043 19.3 168.603 19.1C168.176 18.9 167.57 18.72 166.783 18.56C166.25 18.4533 165.716 18.3 165.183 18.1C164.65 17.9 164.203 17.62 163.843 17.26C163.483 16.8867 163.303 16.4 163.303 15.8C163.303 14.9333 163.623 14.2267 164.263 13.68C164.916 13.12 165.796 12.84 166.903 12.84C167.956 12.84 168.816 13.1067 169.483 13.64C170.163 14.16 170.556 14.9067 170.663 15.88H169.003C168.936 15.3733 168.716 14.98 168.343 14.7C167.983 14.4067 167.496 14.26 166.883 14.26C166.283 14.26 165.816 14.3867 165.483 14.64C165.163 14.8933 165.003 15.2267 165.003 15.64C165.003 16.04 165.21 16.3533 165.623 16.58C166.05 16.8067 166.623 17 167.343 17.16C167.956 17.2933 168.536 17.46 169.083 17.66C169.643 17.8467 170.096 18.1333 170.443 18.52C170.803 18.8933 170.983 19.44 170.983 20.16C170.996 21.0533 170.656 21.7933 169.963 22.38C169.283 22.9533 168.356 23.24 167.183 23.24Z" fill="black"/>
</svg>
