<svg width="32" height="32" viewBox="0 0 32 32" fill="none" xmlns="http://www.w3.org/2000/svg">
<path d="M10.2522 5.23897C10.0295 5.23897 9.86523 5.4079 9.86523 5.61522V7.93467C9.86523 7.98449 9.87506 8.03378 9.89416 8.07967C9.91345 8.12574 9.94166 8.16735 9.97702 8.20235C10.0124 8.23735 10.0545 8.26503 10.1006 8.2836C10.1468 8.30217 10.1963 8.31146 10.2461 8.31092H21.7721C21.8722 8.31092 21.9685 8.27146 22.0399 8.20092C22.1112 8.13057 22.1519 8.03485 22.153 7.93468V5.61522C22.153 5.40486 21.9794 5.23897 21.766 5.23897H20.6171L19.081 3.70288H12.937L11.4009 5.23897L10.2522 5.23897Z" fill="black"/>
<path fill-rule="evenodd" clip-rule="evenodd" d="M5.25684 8.29856C5.25684 6.61212 6.62968 5.24393 8.32879 5.23891V9.08659C8.32879 9.51658 8.67897 9.84695 9.1122 9.84695H22.9056C23.3388 9.84695 23.689 9.50588 23.689 9.08659V5.23891H23.6797C24.4939 5.23641 25.2759 5.5573 25.8536 6.13107C26.4313 6.70483 26.7577 7.48444 26.761 8.29856V25.2192C26.761 26.9087 25.3833 28.2789 23.6797 28.2789H8.33848C7.52421 28.2814 6.74222 27.9605 6.16453 27.3867C5.58684 26.813 5.26044 26.0334 5.2572 25.2192L5.25684 8.29856ZM9.86484 15.2229C9.86484 15.6347 10.2088 15.991 10.6327 15.991H21.3847C21.7993 15.991 22.1526 15.6468 22.1526 15.2229C22.1526 14.8113 21.8086 14.455 21.3847 14.455H10.6327C10.2181 14.455 9.86484 14.799 9.86484 15.2229ZM9.86484 21.3669C9.86484 21.7785 10.2088 22.135 10.6327 22.135H21.3847C21.7993 22.135 22.1526 21.7908 22.1526 21.3669C22.1526 20.9553 21.8086 20.5989 21.3847 20.5989H10.6327C10.2181 20.5989 9.86484 20.943 9.86484 21.3669ZM21.3848 17.5269H10.6328C10.2087 17.5269 9.86497 17.8707 9.86497 18.2948C9.86497 18.7191 10.2087 19.0628 10.6328 19.0628H21.3848C21.8089 19.0628 22.1527 18.7191 22.1527 18.2948C22.1527 17.8707 21.809 17.5269 21.3848 17.5269Z" fill="black"/>
</svg>
