<svg width="32" height="32" viewBox="0 0 32 32" fill="none" xmlns="http://www.w3.org/2000/svg">
<path d="M5.75491 14.95H14.6998C14.9748 14.95 15.1998 14.725 15.1998 14.45V5.50002C15.1998 5.22502 14.9748 5 14.6998 5H5.75491C5.47991 5 5.25488 5.225 5.25488 5.50002V14.4449C5.25488 14.7249 5.47988 14.9499 5.75491 14.9499V14.95Z" fill="#C4C4C4"/>
<path d="M17.2949 14.95H26.2399C26.5149 14.95 26.7399 14.725 26.7399 14.45V5.50002C26.7399 5.22502 26.5149 5 26.2399 5H17.2949C17.0199 5 16.7949 5.225 16.7949 5.50002V14.4449C16.7949 14.7249 17.0199 14.9499 17.2949 14.9499V14.95Z" fill="#C4C4C4"/>
<path d="M5.75491 26.49H14.6998C14.9748 26.49 15.1998 26.265 15.1998 25.99V17.0401C15.1998 16.7651 14.9748 16.54 14.6998 16.54H5.75491C5.47991 16.54 5.25488 16.765 5.25488 17.0401V25.985C5.25488 26.265 5.47988 26.49 5.75491 26.49V26.49Z" fill="#C4C4C4"/>
<path d="M17.2949 26.49H26.2399C26.5149 26.49 26.7399 26.265 26.7399 25.99V17.0401C26.7399 16.7651 26.5149 16.54 26.2399 16.54H17.2949C17.0199 16.54 16.7949 16.765 16.7949 17.0401V25.985C16.7949 26.265 17.0199 26.49 17.2949 26.49V26.49Z" fill="#C4C4C4"/>
</svg>
