<svg width="16" height="16" viewBox="0 0 16 16" fill="none" xmlns="http://www.w3.org/2000/svg">
<path d="M10.0627 13.1263C10.1974 13.127 10.332 13.1183 10.4655 13.1C11.4669 12.9682 12.3215 12.347 12.9389 11.2816V11.2817C13.1936 10.8253 13.1936 10.2697 12.9389 9.81336C12.577 9.13283 11.9998 8.5913 11.2975 8.27363C10.871 8.07935 10.3784 8.09462 9.96479 8.31506C9.45729 8.57712 9.05763 9.00873 8.83532 9.53479C8.35818 9.22978 7.91953 8.86827 7.52899 8.4581C7.11827 8.06811 6.75676 7.62935 6.45231 7.15177C6.97765 6.92838 7.40899 6.529 7.67203 6.0224C7.89248 5.60873 7.90783 5.11616 7.71346 4.68962C7.39463 3.98811 6.85346 3.41122 6.17373 3.0482C5.71748 2.79346 5.16178 2.79346 4.70553 3.0482C3.66267 3.68446 3.03776 4.53911 2.90599 5.54055C2.71402 7.005 3.58366 8.75175 5.42073 10.5853C7.0885 12.2569 8.68473 13.1266 10.0626 13.1266L10.0627 13.1263ZM3.66266 5.63442C3.75302 4.86272 4.24239 4.23396 5.10079 3.71826C5.21516 3.65254 5.34543 3.62004 5.47722 3.62415C5.60874 3.6229 5.7383 3.65531 5.85375 3.71826C6.39196 4.0013 6.8191 4.45755 7.06598 5.01325C7.16937 5.21941 7.16937 5.46228 7.06598 5.66834C6.80241 6.08994 6.3582 6.4928 5.97418 6.4928C5.86954 6.48708 5.76713 6.5253 5.69185 6.59824C5.61765 6.66896 5.57551 6.76681 5.57515 6.86931C5.57515 7.03118 5.6806 7.66368 7.01703 9.00012C8.35345 10.3366 8.98596 10.4307 9.1365 10.4307C9.24043 10.4308 9.3398 10.3882 9.41106 10.3125C9.48231 10.237 9.51928 10.1353 9.51302 10.0316C9.49044 9.6552 9.88946 9.20343 10.3262 8.97379H10.3261C10.5323 8.8703 10.7752 8.8703 10.9812 8.97379C11.537 9.22067 11.9933 9.64771 12.2763 10.186C12.4036 10.4141 12.4036 10.692 12.2763 10.9201C11.7756 11.7823 11.1469 12.2679 10.3601 12.3695C9.1365 12.5164 7.6307 11.7182 5.95161 10.0543C4.27259 8.39027 3.48944 6.86937 3.65127 5.63463L3.66266 5.63442Z" fill="black"/>
</svg>
