<svg width="32" height="32" viewBox="0 0 32 32" fill="none" xmlns="http://www.w3.org/2000/svg">
<path d="M28.4659 10.6045C28.0666 9.68037 26.9657 8.97893 26.0159 9.0454C25.0661 9.11201 23.9678 8.74076 23.4814 8.27736C22.995 7.81395 22.6007 6.71827 22.6366 5.76344C22.6727 4.8086 21.9379 3.73861 20.9984 3.36485C20.0589 2.9911 18.7891 3.27521 18.1645 3.98949C17.5399 4.7036 16.4929 5.22844 15.8272 5.24897C15.1616 5.2695 14.1018 4.7702 13.4567 4.07397C12.8115 3.37756 11.529 3.12933 10.6049 3.5286C9.68075 3.92787 8.97414 5.02876 9.04075 5.97861C9.10735 6.92842 8.7361 8.02666 8.2727 8.51306C7.8093 8.99946 6.71361 9.38858 5.76395 9.35786C4.81414 9.32696 3.73894 10.0591 3.36518 10.9986C2.99125 11.9382 3.27554 13.2079 3.98964 13.8325C4.70392 14.4571 5.22872 15.5043 5.24929 16.1673C5.26987 16.8304 4.77323 17.8927 4.0743 18.5378C3.37537 19.183 3.12449 20.463 3.52893 21.3923C3.9334 22.3216 5.02909 23.023 5.97894 22.9564C6.92875 22.8898 8.02699 23.261 8.51339 23.7244C8.99979 24.1878 9.39412 25.2784 9.35819 26.2332C9.32225 27.188 10.0571 28.2582 10.9991 28.632C11.9412 29.0057 13.2084 28.7216 13.833 28.0073C14.4577 27.293 15.5021 26.7682 16.1676 26.758C16.8332 26.7478 17.893 27.242 18.5434 27.9382C19.1936 28.6344 20.4736 28.8726 21.3978 28.4732C22.3219 28.0739 23.0285 26.9782 22.9619 26.0284C22.8953 25.0786 23.2666 23.9804 23.73 23.4939C24.1932 23.0077 25.2864 22.6186 26.2412 22.657C27.1961 22.6954 28.2663 21.958 28.64 21.0161C29.0138 20.0739 28.7347 18.8068 28.0154 18.177C27.2959 17.5472 26.7713 16.5129 26.7532 15.8396C26.7354 15.1664 27.232 14.1143 27.9334 13.4691C28.2831 13.0902 28.5184 12.6204 28.6125 12.1136C28.7068 11.6066 28.6559 11.0836 28.4659 10.6045ZM17.9699 20.5729C16.7569 21.0974 15.3851 21.1185 14.1565 20.6312C12.9279 20.144 11.9433 19.1885 11.4194 17.9752C10.8954 16.7619 10.8751 15.3901 11.3629 14.1617C11.8506 12.9333 12.8065 11.9492 14.0202 11.4258C15.2338 10.9024 16.6056 10.8827 17.8336 11.3711C19.0618 11.8593 20.0456 12.8158 20.5683 14.0295C21.091 15.2409 21.1119 16.6102 20.6261 17.837C20.1404 19.0636 19.1879 20.0475 17.9775 20.5729L17.9699 20.5729Z" fill="#C4C4C4"/>
</svg>
