<svg width="17" height="17" viewBox="0 0 17 17" fill="none" xmlns="http://www.w3.org/2000/svg">
<path fill-rule="evenodd" clip-rule="evenodd" d="M4.9582 6.62791V4.74449C4.9582 2.97159 6.61289 1.41678 8.49994 1.41678C10.387 1.41678 12.0417 2.9715 12.0417 4.74449V6.62791C12.0417 8.64533 10.2871 10.625 8.49994 10.625C6.71274 10.625 4.9582 8.64527 4.9582 6.62791ZM15.9671 12.3738C14.1644 11.4247 12.8121 10.931 11.5718 10.7737C12.7002 9.75378 13.458 8.23227 13.458 6.62788V4.74446C13.458 2.17254 11.1872 0 8.49985 0C5.8125 0 3.54165 2.17239 3.54165 4.74446V6.62788C3.54165 8.23157 4.29951 9.75311 5.42721 10.7731C4.20179 10.9255 2.84463 11.4191 1.03274 12.3739C0.395945 12.7103 0 13.3671 0 14.0874V16.2917C0 16.6827 0.317321 17 0.708288 17H16.2917C16.6827 17 17 16.6827 17 16.2917V14.0874C17 13.3671 16.6041 12.7103 15.9673 12.3739" fill="#C4C4C4"/>
</svg>
